<svg xmlns="http://www.w3.org/2000/svg" width="current" height="current" fill="none" viewBox="0 0 104 104"><rect width="101.111" height="101.111" x="1.444" y="1.444" fill="url(#a)" rx="22.222"/><rect width="101.111" height="101.111" x="1.444" y="1.444" stroke="#282D32" stroke-width="1.111" rx="22.222"/><path fill="#fff" d="M90.368 72.655c1.006 1.492-.063 3.503-1.864 3.503H77.071a2.247 2.247 0 0 1-1.863-.99l-29.553-43.82c-1.006-1.493.063-3.504 1.863-3.504h11.433c.747 0 1.446.37 1.863.99l29.554 43.82Z"/><g filter="url(#b)"><path fill="#fff" d="M60.707 53.697a2.247 2.247 0 0 1-2.247 2.247h-1.124a2.247 2.247 0 0 1-2.247-2.247V30.652a2.247 2.247 0 0 1 2.247-2.247h1.124a2.247 2.247 0 0 1 2.247 2.247v23.045Z"/></g><path fill="#fff" d="M60.707 73.911a2.247 2.247 0 0 1-2.247 2.247H47.224a2.247 2.247 0 0 1-2.247-2.247v-43.82a2.247 2.247 0 0 1 2.247-2.247h12.36c.62 0 1.123.503 1.123 1.123v44.944Z"/><g filter="url(#c)"><path fill="#fff" d="M58.329 72.65c1.011 1.492-.058 3.508-1.86 3.508h-3.38c-.746 0-1.442-.37-1.86-.986l-13.986-20.63c-1.012-1.491.057-3.507 1.86-3.507h3.38c.745 0 1.442.369 1.86.986L58.329 72.65Z"/></g><path fill="#fff" d="M59.805 74.406a1.124 1.124 0 0 1-.932 1.752H45.327a2.247 2.247 0 0 1-1.863-.99l-29.553-43.82c-1.006-1.493.063-3.504 1.863-3.504h11.433c.747 0 1.445.37 1.863.99l30.735 45.572Z"/><defs><filter id="b" width="16.853" height="38.775" x="50.596" y="22.787" color-interpolation-filters="sRGB" filterUnits="userSpaceOnUse"><feFlood flood-opacity="0" result="BackgroundImageFix"/><feColorMatrix in="SourceAlpha" result="hardAlpha" values="0 0 0 0 0 0 0 0 0 0 0 0 0 0 0 0 0 0 127 0"/><feOffset dx="1.124"/><feGaussianBlur stdDeviation="2.809"/><feComposite in2="hardAlpha" operator="out"/><feColorMatrix values="0 0 0 0 0.0838542 0 0 0 0 0.0838542 0 0 0 0 0.670833 0 0 0 0.5 0"/><feBlend in2="BackgroundImageFix" result="effect1_dropShadow_509_3745"/><feBlend in="SourceGraphic" in2="effect1_dropShadow_509_3745" result="shape"/></filter><filter id="c" width="33.103" height="36.36" x="31.795" y="45.416" color-interpolation-filters="sRGB" filterUnits="userSpaceOnUse"><feFlood flood-opacity="0" result="BackgroundImageFix"/><feColorMatrix in="SourceAlpha" result="hardAlpha" values="0 0 0 0 0 0 0 0 0 0 0 0 0 0 0 0 0 0 127 0"/><feOffset dx=".562"/><feGaussianBlur stdDeviation="2.809"/><feComposite in2="hardAlpha" operator="out"/><feColorMatrix values="0 0 0 0 0.0823529 0 0 0 0 0.0823529 0 0 0 0 0.670588 0 0 0 0.7 0"/><feBlend in2="BackgroundImageFix" result="effect1_dropShadow_509_3745"/><feBlend in="SourceGraphic" in2="effect1_dropShadow_509_3745" result="shape"/></filter><linearGradient id="a" x1="42.833" x2="26.167" y1="44.5" y2="102" gradientUnits="userSpaceOnUse"><stop stop-color="#05070E"/><stop offset="1" stop-color="#000096"/></linearGradient></defs></svg>