<svg xmlns="http://www.w3.org/2000/svg" width="20" height="20" fill="#fff" viewBox="0 0 20 20"><path fill="current" d="M9.999 19.304a9.138 9.138 0 0 1-3.65-.73 9.34 9.34 0 0 1-2.954-1.99 9.243 9.243 0 0 1-1.978-2.968 9.318 9.318 0 0 1-.722-3.662c0-1.301.24-2.515.722-3.64A9.237 9.237 0 0 1 3.395 3.37a9.149 9.149 0 0 1 2.954-1.966A9.333 9.333 0 0 1 9.999.69c1.302 0 2.518.238 3.65.713a9.149 9.149 0 0 1 2.954 1.966 9.274 9.274 0 0 1 1.981 2.943c.483 1.126.724 2.34.724 3.641a9.287 9.287 0 0 1-.724 3.662 9.28 9.28 0 0 1-1.98 2.968 9.34 9.34 0 0 1-2.955 1.99 9.138 9.138 0 0 1-3.65.73Zm-.006-1.51a7.741 7.741 0 0 0 1.322-1.88c.357-.707.652-1.549.885-2.527H7.82c.211.917.495 1.74.852 2.47.357.73.798 1.375 1.321 1.937Zm-1.931-.275a10.007 10.007 0 0 1-.983-1.868 14.336 14.336 0 0 1-.679-2.264H2.984c.574 1.081 1.24 1.93 2 2.545.761.615 1.787 1.144 3.078 1.587Zm3.886-.023a9.08 9.08 0 0 0 2.951-1.573 8.165 8.165 0 0 0 2.109-2.536h-3.387c-.199.822-.43 1.569-.696 2.24a9.754 9.754 0 0 1-.977 1.869Zm-9.416-5.467h3.616a12.875 12.875 0 0 1-.08-1.109 41.313 41.313 0 0 1-.012-.966 14.182 14.182 0 0 1 .115-2.005H2.53a6.787 6.787 0 0 0-.217.98 7.9 7.9 0 0 0-.057 1.025c0 .394.019.746.057 1.058.038.311.11.65.218 1.017Zm5.037 0h4.883c.057-.474.093-.859.106-1.155a20.212 20.212 0 0 0 0-1.796 16.432 16.432 0 0 0-.106-1.13H7.569c-.061.474-.1.85-.115 1.13a17.86 17.86 0 0 0 0 1.797c.016.295.054.68.115 1.154Zm6.258 0h3.634c.103-.367.175-.706.215-1.017.04-.312.06-.664.06-1.058 0-.397-.02-.739-.06-1.025a7.482 7.482 0 0 0-.215-.98H13.85c.039.538.065.946.08 1.223a12.181 12.181 0 0 1-.011 1.725c-.023.296-.053.673-.092 1.132Zm-.23-5.444h3.411a7.397 7.397 0 0 0-2.063-2.622 7.818 7.818 0 0 0-3.02-1.481 9.54 9.54 0 0 1 .977 1.825c.265.655.497 1.414.696 2.278Zm-5.776 0h4.402a8.816 8.816 0 0 0-.843-2.338 9.343 9.343 0 0 0-1.387-1.995c-.477.41-.884.948-1.218 1.616-.334.669-.652 1.574-.954 2.717Zm-4.837 0h3.439c.168-.818.38-1.55.633-2.198.255-.648.582-1.275.983-1.883-1.142.287-2.138.772-2.988 1.456-.85.684-1.54 1.559-2.067 2.625Z"/></svg>