<svg xmlns="http://www.w3.org/2000/svg" width="current" height="current" fill="current" viewBox="0 0 38 38"><path fill="current" d="M14.173 26.5h2.27v-15h-2.27v15Zm7.385 0h2.269v-15h-2.27v15ZM19.003 38c-2.607 0-5.064-.499-7.37-1.496a19.312 19.312 0 0 1-6.049-4.086 19.304 19.304 0 0 1-4.087-6.046C.499 24.067 0 21.61 0 19.003c0-2.628.499-5.098 1.496-7.41.997-2.312 2.36-4.324 4.085-6.034 1.727-1.71 3.742-3.065 6.047-4.062C13.933.499 16.39 0 18.997 0c2.628 0 5.098.499 7.41 1.496 2.312.997 4.323 2.35 6.034 4.06 1.71 1.71 3.064 3.72 4.062 6.032.998 2.311 1.497 4.78 1.497 7.409 0 2.607-.499 5.064-1.496 7.37-.997 2.305-2.35 4.322-4.06 6.049-1.71 1.727-3.72 3.09-6.032 4.087-2.311.998-4.78 1.497-7.409 1.497ZM19 35.73c4.656 0 8.609-1.629 11.858-4.888C34.106 27.583 35.73 23.636 35.73 19c0-4.656-1.625-8.609-4.873-11.858C27.608 3.894 23.656 2.27 19 2.27c-4.636 0-8.583 1.625-11.842 4.873C3.898 10.391 2.269 14.344 2.269 19c0 4.636 1.63 8.583 4.889 11.842 3.259 3.26 7.206 4.889 11.842 4.889Z"/></svg>