<svg xmlns="http://www.w3.org/2000/svg" width="140" fill="none" viewBox="0 0 147 34"><path fill="current" fill-rule="evenodd" d="M0 6.416 13.043 0l6.523 3.207V5.62L9.13 10.755v16.83l-2.608 1.284L0 25.662l3.914-8.725L0 15.012V6.416Zm10.434 5.131 13.045-6.416L30 8.338v7.444l-3.911 1.922L30 19.629v7.955L16.956 34l-6.522-3.207V11.547Z" clip-rule="evenodd"/><path fill="current" d="M41.82 9.34h4.98c.907 0 1.653.127 2.24.38.587.24 1.047.553 1.38.94.347.373.587.8.72 1.28.133.467.2.92.2 1.36 0 .453-.08.893-.24 1.32-.16.413-.393.793-.7 1.14-.293.333-.66.62-1.1.86a3.855 3.855 0 0 1-1.44.42l4.02 6.46h-2.4l-3.6-6.24h-2.14v6.24h-1.92V9.34Zm1.92 6.24h2.52c.373 0 .74-.027 1.1-.08.373-.067.7-.18.98-.34.293-.16.527-.387.7-.68.173-.307.26-.7.26-1.18s-.087-.867-.26-1.16a1.767 1.767 0 0 0-.7-.7 2.737 2.737 0 0 0-.98-.32c-.36-.067-.727-.1-1.1-.1h-2.52v4.56Zm11.207 3.84c0 .413.086.793.26 1.14.186.333.426.62.72.86.293.24.633.427 1.02.56.386.133.786.2 1.2.2.56 0 1.046-.127 1.46-.38a4.894 4.894 0 0 0 1.14-1.04l1.36 1.04c-1 1.293-2.4 1.94-4.2 1.94-.747 0-1.427-.127-2.04-.38-.6-.253-1.114-.6-1.54-1.04a4.875 4.875 0 0 1-.96-1.58 5.666 5.666 0 0 1-.34-1.98c0-.707.12-1.36.36-1.96a4.962 4.962 0 0 1 1.02-1.58c.44-.453.96-.807 1.56-1.06.6-.253 1.253-.38 1.96-.38.84 0 1.546.147 2.12.44.586.293 1.066.68 1.44 1.16.373.467.64 1 .8 1.6.173.587.26 1.187.26 1.8v.64h-7.6Zm5.68-1.44c-.014-.4-.08-.767-.2-1.1a2.219 2.219 0 0 0-.5-.86 2.184 2.184 0 0 0-.86-.58c-.334-.147-.727-.22-1.18-.22-.44 0-.847.087-1.22.26-.36.16-.667.373-.92.64a3.124 3.124 0 0 0-.6.9c-.134.32-.2.64-.2.96h5.68Zm4.073-9.6h1.8v7h.04c.32-.493.78-.88 1.38-1.16.6-.293 1.24-.44 1.92-.44.733 0 1.393.127 1.98.38.6.253 1.107.607 1.52 1.06.426.44.753.967.98 1.58.227.6.34 1.253.34 1.96 0 .707-.114 1.36-.34 1.96a4.704 4.704 0 0 1-.98 1.58c-.413.453-.92.807-1.52 1.06-.587.253-1.247.38-1.98.38-.64 0-1.267-.14-1.88-.42a3.441 3.441 0 0 1-1.42-1.18h-.04v1.36h-1.8V8.38Zm4.92 13.68c.48 0 .913-.08 1.3-.24.386-.173.713-.4.98-.68a3.14 3.14 0 0 0 .62-1.04c.147-.413.22-.86.22-1.34a3.8 3.8 0 0 0-.22-1.32 2.88 2.88 0 0 0-.62-1.04 2.697 2.697 0 0 0-.98-.68 3.144 3.144 0 0 0-1.3-.26c-.48 0-.913.087-1.3.26a2.7 2.7 0 0 0-.98.68 2.87 2.87 0 0 0-.62 1.04 3.8 3.8 0 0 0-.22 1.32c0 .48.073.927.22 1.34.147.4.353.747.62 1.04.266.28.593.507.98.68.387.16.82.24 1.3.24Zm15.706 1.44h-1.8v-1.46h-.04c-.226.507-.62.92-1.18 1.24-.56.307-1.206.46-1.94.46-.466 0-.906-.073-1.32-.22a2.95 2.95 0 0 1-1.1-.64 3.22 3.22 0 0 1-.74-1.12c-.186-.467-.28-1.013-.28-1.64v-6.1h1.8v5.6c0 .44.06.82.18 1.14.12.307.28.56.48.76.2.187.427.327.68.42.267.08.54.12.82.12.374 0 .72-.06 1.04-.18.32-.12.6-.307.84-.56.24-.267.427-.6.56-1 .134-.4.2-.873.2-1.42v-4.88h1.8v9.48Zm2.854-9.48h1.8v9.48h-1.8v-9.48Zm-.42-3.4c0-.36.126-.667.38-.92.266-.267.58-.4.94-.4s.666.133.92.4c.266.253.4.56.4.92s-.134.673-.4.94c-.254.253-.56.38-.92.38a1.32 1.32 0 0 1-.94-.38 1.32 1.32 0 0 1-.38-.94Zm5.224-2.24h1.8V23.5h-1.8V8.38ZM107.15 23.5h-1.8v-1.36h-.04c-.347.507-.827.9-1.44 1.18-.6.28-1.22.42-1.86.42-.733 0-1.4-.127-2-.38a4.526 4.526 0 0 1-1.52-1.06 4.875 4.875 0 0 1-.96-1.58 5.502 5.502 0 0 1-.34-1.96c0-.707.113-1.36.34-1.96.227-.613.547-1.14.96-1.58a4.526 4.526 0 0 1 1.52-1.06c.6-.253 1.267-.38 2-.38.68 0 1.32.147 1.92.44.6.28 1.06.667 1.38 1.16h.04v-7h1.8V23.5Zm-4.92-1.44c.48 0 .913-.08 1.3-.24.387-.173.713-.4.98-.68.267-.293.473-.64.62-1.04.147-.413.22-.86.22-1.34a3.8 3.8 0 0 0-.22-1.32 2.881 2.881 0 0 0-.62-1.04 2.698 2.698 0 0 0-.98-.68 3.146 3.146 0 0 0-1.3-.26c-.48 0-.913.087-1.3.26-.387.16-.713.387-.98.68a2.88 2.88 0 0 0-.62 1.04 3.8 3.8 0 0 0-.22 1.32c0 .48.073.927.22 1.34.147.4.353.747.62 1.04.267.28.593.507.98.68.387.16.82.24 1.3.24Zm9.007-2.64c0 .413.086.793.26 1.14.186.333.426.62.72.86.293.24.633.427 1.02.56.386.133.786.2 1.2.2.56 0 1.046-.127 1.46-.38a4.906 4.906 0 0 0 1.14-1.04l1.36 1.04c-1 1.293-2.4 1.94-4.2 1.94-.747 0-1.427-.127-2.04-.38-.6-.253-1.114-.6-1.54-1.04a4.854 4.854 0 0 1-.96-1.58 5.66 5.66 0 0 1-.34-1.98c0-.707.12-1.36.36-1.96a4.952 4.952 0 0 1 1.02-1.58c.44-.453.96-.807 1.56-1.06.6-.253 1.253-.38 1.96-.38.84 0 1.546.147 2.12.44.586.293 1.066.68 1.44 1.16.373.467.64 1 .8 1.6.173.587.26 1.187.26 1.8v.64h-7.6Zm5.68-1.44c-.014-.4-.08-.767-.2-1.1a2.23 2.23 0 0 0-.5-.86 2.19 2.19 0 0 0-.86-.58c-.334-.147-.727-.22-1.18-.22-.44 0-.847.087-1.22.26-.36.16-.667.373-.92.64a3.1 3.1 0 0 0-.6.9c-.134.32-.2.64-.2.96h5.68Zm4.073-3.96h1.8v1.46h.04c.12-.253.28-.48.48-.68.2-.213.42-.393.66-.54.253-.147.527-.26.82-.34a2.89 2.89 0 0 1 .88-.14c.293 0 .56.04.8.12l-.08 1.94a5.235 5.235 0 0 0-.44-.1 2.452 2.452 0 0 0-.44-.04c-.88 0-1.553.247-2.02.74-.467.493-.7 1.26-.7 2.3v4.76h-1.8v-9.48Zm12.302-4.68h1.74l6.06 14.16h-2.24l-1.42-3.5h-6.74l-1.4 3.5h-2.24l6.24-14.16Zm3.44 8.98-2.64-6.5h-.04l-2.68 6.5h5.36Zm6.202-8.98h1.92V23.5h-1.92V9.34Z"/></svg>